<svg width="18" height="22" viewBox="0 0 18 22" fill="none" xmlns="http://www.w3.org/2000/svg">
<path fill-rule="evenodd" clip-rule="evenodd" d="M14.9673 4.95483C14.4759 4.57794 13.8168 4.16499 12.8785 3.5788L11.8087 2.91058C11.0167 2.4156 10.4694 2.07478 10.0147 1.85204C9.5749 1.63708 9.27933 1.56213 9.00003 1.56283C8.72072 1.56213 8.42515 1.63708 7.98533 1.85204C7.53066 2.07478 6.98406 2.4149 6.1914 2.91058L5.12225 3.57809C4.18321 4.16499 3.52419 4.57794 3.03275 4.95483C2.55333 5.32111 2.28039 5.62092 2.09513 5.95609C1.90916 6.29055 1.80026 6.68087 1.74299 7.28121C1.6843 7.89851 1.68288 8.67633 1.68288 9.78366L1.68289 12.3717C1.68289 14.2936 1.6843 15.6597 1.82431 16.6963C1.96007 17.7117 2.21675 18.2979 2.64455 18.7257C3.07306 19.1542 3.65854 19.4102 4.67465 19.5467C5.71056 19.686 7.07811 19.6874 9.00003 19.6874C10.9234 19.6874 12.2895 19.686 13.3261 19.5474C14.3408 19.4095 14.927 19.1542 15.3555 18.7257C15.7833 18.2979 16.0393 17.7124 16.1757 16.6963C16.3158 15.6597 16.3172 14.2922 16.3172 12.3703L16.3172 9.78224C16.3172 8.67633 16.3158 7.89851 16.2578 7.28191C16.1998 6.68087 16.0909 6.29055 15.9049 5.95609C15.7197 5.62092 15.446 5.32181 14.968 4.95553M15.8809 3.76547C16.4551 4.20529 16.8977 4.65218 17.2173 5.22918C17.5376 5.80689 17.6819 6.41924 17.7512 7.13908C17.8176 7.83629 17.8176 8.68481 17.8176 9.74689L17.8176 12.4282C17.8176 14.2809 17.8176 15.7488 17.6621 16.8972C17.5044 18.0787 17.1699 19.034 16.4169 19.7871C15.6631 20.5409 14.7078 20.8753 13.5269 21.0337C12.3779 21.1886 10.9106 21.1893 9.0573 21.1886H8.94416C7.09154 21.1886 5.62359 21.1886 4.47525 21.033C3.29367 20.8753 2.33767 20.5402 1.5846 19.7871C0.831529 19.034 0.497068 18.0787 0.337969 16.8971C0.18382 15.7488 0.183112 14.2816 0.183112 12.4275L0.184526 9.74618C0.184526 8.68552 0.184526 7.83558 0.250287 7.13908C0.32029 6.41854 0.46454 5.80618 0.784152 5.22918C1.10447 4.65148 1.54712 4.20459 2.12129 3.76477C2.67637 3.33838 3.39762 2.88866 4.29706 2.3258L5.43055 1.61657C6.1822 1.14776 6.79456 0.764511 7.32772 0.504295C7.88563 0.232059 8.41313 0.0623539 9.00144 0.0623539C9.58975 0.0623539 10.1187 0.23206 10.6745 0.505003C11.2083 0.764511 11.8207 1.14776 12.5716 1.61728L13.7051 2.32651C14.606 2.88795 15.3258 3.33909 15.8816 3.76476M10.0571 7.39293C10.0571 7.06136 9.92544 6.74338 9.69098 6.50893C9.45653 6.27448 9.13855 6.14276 8.80699 6.14276C8.47542 6.14276 8.15744 6.27448 7.92299 6.50893C7.68853 6.74338 7.55682 7.06136 7.55682 7.39293C7.55682 7.5571 7.58916 7.71967 7.65198 7.87135C7.71481 8.02302 7.8069 8.16084 7.92299 8.27693C8.03907 8.39302 8.17689 8.4851 8.32857 8.54793C8.48024 8.61076 8.64281 8.64309 8.80699 8.64309C8.97116 8.64309 9.13373 8.61076 9.2854 8.54793C9.43708 8.4851 9.5749 8.39302 9.69099 8.27693C9.80707 8.16084 9.89916 8.02302 9.96199 7.87135C10.0248 7.71967 10.0571 7.5571 10.0571 7.39293ZM8.80628 4.64299C9.5357 4.6429 10.2353 4.93257 10.7511 5.44828C11.267 5.964 11.5568 6.66351 11.5569 7.39293C11.557 8.12235 11.2673 8.82194 10.7516 9.33778C10.2359 9.85363 9.53641 10.1435 8.80698 10.1436C8.07747 10.1436 7.37783 9.85377 6.86199 9.33793C6.34614 8.82208 6.05634 8.12245 6.05634 7.39293C6.05634 6.66341 6.34614 5.96378 6.86199 5.44793C7.37783 4.93208 8.07676 4.64299 8.80628 4.64299ZM9.62581 12.7754C9.4561 12.6182 9.23128 12.5341 9.00003 12.5414C8.45131 12.5414 8.24978 12.8871 8.24978 13.0413C8.25049 13.1962 8.45272 13.5412 9.00003 13.5412C10.1088 13.5412 11.25 14.3148 11.25 15.5409C11.25 16.4927 10.5634 17.1722 9.73754 17.4282C9.70572 17.6002 9.61477 17.7557 9.48042 17.8677C9.34607 17.9798 9.17678 18.0414 9.00185 18.0418C8.82691 18.0422 8.65732 17.9814 8.52244 17.87C8.38756 17.7586 8.29586 17.6036 8.26322 17.4317C7.77189 17.2884 7.34584 16.9783 7.05831 16.5549C7.00408 16.4726 6.96659 16.3805 6.94797 16.2837C6.92935 16.187 6.92998 16.0875 6.94981 15.991C6.96964 15.8944 7.00828 15.8028 7.06354 15.7212C7.1188 15.6396 7.18958 15.5697 7.27186 15.5155C7.35413 15.4612 7.44628 15.4237 7.54304 15.4051C7.6398 15.3865 7.73929 15.3871 7.83581 15.407C7.93233 15.4268 8.024 15.4654 8.10558 15.5207C8.18717 15.576 8.25707 15.6467 8.3113 15.729C8.4103 15.8803 8.65284 16.0423 9.00003 16.0416C9.54803 16.0408 9.75027 15.6958 9.75027 15.5416C9.74956 15.3868 9.54733 15.0417 9.00003 15.0417C7.89128 15.0417 6.75001 14.2681 6.75001 13.042C6.75001 12.0902 7.43661 11.4107 8.26251 11.1547C8.29433 10.9827 8.38528 10.8272 8.51963 10.7152C8.65398 10.6031 8.82327 10.5416 8.9982 10.5412C9.17314 10.5407 9.34273 10.6015 9.47761 10.7129C9.61249 10.8243 9.70419 10.9793 9.73683 11.1512C10.1052 11.2636 10.4369 11.4595 10.6971 11.7254C10.8364 11.8673 10.9137 12.0588 10.9118 12.2578C10.9099 12.4567 10.8291 12.6467 10.6872 12.786C10.5452 12.9254 10.3537 13.0026 10.1548 13.0008C9.95589 12.9989 9.76515 12.9174 9.62581 12.7754Z" fill="#1AA090"/>
</svg>
